<?xml version="1.0" encoding="utf-8"?>
<!DOCTYPE svg PUBLIC "-//W3C//DTD SVG 1.0//EN" "http://www.w3.org/TR/2001/REC-SVG-20010904/DTD/svg10.dtd">
<svg version="1.0" xmlns="http://www.w3.org/2000/svg" width="459px" height="286px" viewBox="0 0 459 286" preserveAspectRatio="xMidYMid meet">
 <g fill="#000000">
  <path d="M20.25 272.65 c-2.10 -0.55 -2.75 -1.65 -2.75 -4.75 0 -4.55 2.35 -8.15 8.70 -13.20 5.15 -4.10 9.55 -6.55 44.30 -24.35 48.35 -24.75 64.70 -32.50 104 -49.35 5.35 -2.30 9.85 -4.25 9.95 -4.35 0.50 -0.40 -1.75 -3.55 -4.65 -6.55 -8.45 -8.75 -19.35 -16.30 -46.80 -32.35 -5.10 -2.95 -11.25 -6.75 -13.75 -8.40 -9.95 -6.65 -21.25 -15.85 -26.90 -21.85 -5.95 -6.30 -7.85 -11.45 -7.85 -21.30 0 -3.90 0.30 -6.70 1 -9.45 2.40 -9.40 13.30 -25.40 24.35 -35.75 7.30 -6.80 22.10 -17.70 28.40 -20.85 7.95 -4 21.25 -6.85 30.50 -6.55 5.25 0.15 5.75 0.25 9.35 2.05 5.95 2.90 8.80 6.65 11.55 15.10 4.25 12.90 5.30 24.35 3.40 37.35 -1.25 8.65 -2.40 12.60 -5.40 18.65 -4.95 9.90 -9.40 15.05 -15.75 18.30 -2.10 1.05 -6.35 1.30 -7.30 0.35 -0.35 -0.35 -0.60 -1.55 -0.60 -2.75 0 -1.75 0.25 -2.40 1.35 -3.30 6.65 -5.45 9.60 -9.25 13.85 -17.75 2.70 -5.40 4.35 -11.15 5.85 -20.60 1.50 -9.45 1.40 -14.35 -0.45 -21.50 -2.10 -8.10 -3.25 -10.60 -6.40 -13.45 -3.10 -2.85 -7.45 -4.55 -11.50 -4.55 -6.60 0 -20.25 3.25 -26.95 6.45 -8.50 4 -21.20 13.55 -29.25 21.85 -10.50 10.90 -18.50 23.75 -20.25 32.50 -0.70 3.60 -0.75 4.35 -0.05 7.65 1.60 7.55 4.10 11.20 13 18.90 11.40 9.85 21.60 16.85 39.05 26.90 13.05 7.50 21.60 13 29.40 18.80 9.45 7.05 14.60 12 17.05 16.15 1.05 1.80 2 3.30 2.05 3.30 0.05 0 5.65 -2.35 12.45 -5.20 10.60 -4.40 12.20 -5.25 11.55 -5.80 -0.45 -0.35 -1.40 -1.65 -2.05 -2.80 l-1.30 -2.15 -2.55 1.70 c-2.70 1.85 -5.60 2.30 -6.75 1.15 -0.35 -0.35 -0.60 -1.45 -0.60 -2.45 0 -1.55 0.35 -2.15 1.95 -3.55 4.50 -3.85 4.65 -4.25 4.75 -11.05 0.05 -5.55 0.15 -6.35 1.40 -8.85 0.75 -1.50 2.15 -3.60 3.05 -4.65 1.50 -1.60 2.05 -1.85 3.95 -1.85 3.35 0 4 0.75 4.25 4.80 0.30 4.15 -0.75 9.45 -2.65 13.75 -1.25 2.75 -1.30 3.20 -0.75 4.85 0.90 2.45 3 5.20 3.65 4.80 0.90 -0.55 3.30 -6.35 4.40 -10.60 0.90 -3.60 0.95 -4.50 0.45 -7.65 -0.90 -5.95 -0.05 -7.95 3.55 -7.95 2.60 0 3.40 0.75 3.75 3.40 0.65 5.20 1.40 8.30 1.80 7.30 0.75 -1.85 0.50 -12.95 -0.30 -15.25 -2.45 -6.95 -4.15 -21.35 -2.65 -22.85 0.85 -0.85 5.15 -0.75 5.90 0.15 0.30 0.40 0.90 2.95 1.30 5.70 0.85 6.20 2.30 12.70 3.80 17.30 l1.15 3.50 0.10 -5.25 c0.30 -14.25 1.25 -31.75 1.90 -35.75 1.50 -9.30 4.85 -19.25 6.80 -20.25 1.55 -0.85 5.70 -0.60 6.60 0.40 0.50 0.55 1.05 3.05 1.55 6.85 0.45 3.30 1.45 8.95 2.25 12.50 0.85 3.60 1.75 8.40 2 10.75 0.80 6.35 0.70 26 -0.20 30.15 -0.90 4.30 -3.80 9.85 -6.75 12.85 -1.90 1.95 -2.80 2.50 -4.70 2.75 -1.25 0.20 -2.75 0.25 -3.30 0.10 -0.90 -0.25 -1 0 -1 2.25 0 1.80 0.20 2.45 0.65 2.25 0.30 -0.15 8.10 -3.25 17.30 -6.90 l16.70 -6.70 3.65 -4.25 c3.05 -3.50 3.70 -4.55 3.70 -6 0.05 -7.15 5.45 -27.45 9.30 -35.05 0.80 -1.65 1.70 -5.50 2.95 -12.95 1.90 -11.45 3.75 -17.95 6.80 -24.30 2.50 -5.30 4.15 -6.70 7.75 -6.70 3.40 0 4.50 1.25 4 4.60 -0.60 4.25 -1.30 14.95 -1.80 28.65 -0.50 13.60 -1.35 26 -2.70 37.75 -0.35 3.15 -0.65 5.80 -0.60 5.80 0.05 0.05 4.35 -1.55 9.55 -3.50 l9.50 -3.60 -0.20 -2.20 c-0.05 -1.25 -0.20 -2.30 -0.30 -2.40 -0.05 -0.10 -1.05 0.35 -2.15 0.90 -1.45 0.75 -2.70 1 -4.45 0.90 l-2.40 -0.15 -0.15 -2.60 c-0.15 -2.50 -0.10 -2.60 1.55 -3.40 0.90 -0.40 2.70 -1.85 3.95 -3.15 l2.30 -2.35 -0.95 -5.50 c-1.75 -10.15 -3 -20.15 -2.85 -22.85 l0.15 -2.65 2.35 -0.15 c2.35 -0.15 2.35 -0.15 2.80 1.75 0.50 2.05 2.70 14.20 3.60 20.05 l0.60 3.65 2.65 -2.50 c2.45 -2.35 2.90 -2.55 5.10 -2.55 1.35 0 2.70 0.25 3.05 0.60 0.35 0.35 0.60 1.85 0.60 3.40 l0.05 2.75 1.75 -2.75 c1.90 -3 3.70 -8.20 3.70 -10.70 0 -2.25 0.80 -2.80 4.10 -2.80 2.50 0 3.10 0.20 4.70 1.60 2.55 2.25 3.70 4.95 3.70 8.95 0 4.20 -1.60 7.50 -5.30 10.90 -1.50 1.35 -2.70 2.70 -2.70 3 0 2.55 5.50 -4.20 9 -11.05 3.50 -6.80 3.40 -5.50 2.45 -26.70 -0.75 -17 0.05 -24.05 3.55 -31.60 1.65 -3.50 2.95 -4.35 6.20 -3.95 3.35 0.45 3.95 1.50 4.15 7.45 0.50 15.65 0.30 28.25 -0.60 33.15 -0.95 5.70 -3.45 14.35 -6 21 -1.80 4.65 -2.05 5.75 -1.35 5.75 0.40 0 12.55 -4.75 16.25 -6.35 1.85 -0.80 1.85 -0.80 0.90 -1.85 -1.60 -1.80 -2.05 -3.20 -2.40 -7.25 -0.30 -4.35 0.30 -7.45 1.85 -9.55 0.85 -1.10 1.30 -1.25 4 -1.25 2.75 0 3.20 0.15 4.30 1.40 1.15 1.35 1.25 1.35 2.65 0.60 3.40 -1.75 6.10 -0.75 11.20 4.15 l3.40 3.30 2.40 -0.90 c1.35 -0.45 3.30 -0.80 4.40 -0.70 1.85 0.15 1.90 0.20 2.05 2.20 0.15 1.85 0 2.10 -1.55 2.95 -1.60 0.85 -1.70 1 -1.45 3.10 0.15 1.65 0 2.40 -0.65 3.15 -1.25 1.40 -4.50 1.30 -7.25 -0.15 l-2.20 -1.15 -6.75 2.75 -6.75 2.80 -4.40 8 c-2.45 4.40 -4.90 9 -5.45 10.25 -1.60 3.60 -5.35 19.50 -5.75 24.35 -0.20 2.40 -0.55 4.70 -0.85 5.05 -0.25 0.30 -1.55 0.60 -2.90 0.60 -2.15 0 -2.50 -0.15 -3.15 -1.40 -0.75 -1.45 -2.15 -9.45 -4.60 -25.95 -1.70 -11.25 -1.40 -11 -6.70 -5.90 -1.80 1.70 -3.75 3.40 -4.35 3.70 -1.40 0.70 -6.40 0.70 -7.70 0 -0.80 -0.40 -1.90 -0.15 -5.30 1.10 -3.75 1.45 -4.15 1.70 -3.25 2.10 1.65 0.75 2.15 3.50 2.25 12 0.10 6.10 -0.10 8.35 -0.85 11.35 -1.30 5 -2.50 6.20 -5.85 5.90 -1.40 -0.15 -2.85 -0.60 -3.30 -1 -0.50 -0.55 -1.30 -4.60 -2.50 -12.45 -0.95 -6.45 -1.80 -11.80 -1.90 -11.90 -0.15 -0.10 -4.75 1.50 -10.35 3.60 l-10.15 3.80 -1.10 9.90 c-1.30 11.55 -2.95 20.85 -5.70 31.75 -3.60 14.50 -5.45 18.90 -8.85 21.30 -1.85 1.35 -7.10 1.55 -8.10 0.35 -1.35 -1.65 -2.20 -14.05 -2.20 -34.05 l-0.05 -19.55 -1.75 0.70 c-2 0.80 -2.40 1.20 -8.70 9.40 -13 16.70 -20.65 31.70 -23.25 45.35 -1.60 8.75 -1.65 10.20 -0.55 21.20 0.60 5.75 1 11.80 0.90 13.45 l-0.15 3 -3.25 0 c-3.25 0 -3.25 0 -4.15 -1.80 -2.95 -6.10 -3.15 -22.70 -0.40 -32.35 0.35 -1.20 0 -6.85 -1.40 -20.90 -1.10 -10.60 -2.10 -19.40 -2.25 -19.55 -0.15 -0.15 -2.60 0.65 -5.40 1.80 -15.15 6.25 -46.20 19.25 -46.50 19.50 -0.20 0.15 0.25 2.55 0.95 5.30 1.50 6.15 2.10 15.80 1.15 19.80 -2.10 9 -12.95 19.10 -28.75 26.70 -21.45 10.35 -77.35 29.05 -110.75 37.05 -15 3.60 -16.25 3.80 -25.75 4 -4.95 0.05 -9.45 0 -10 -0.15z m17.25 -5.90 c14.45 -2.35 43.75 -10.65 77.75 -22 39.60 -13.20 57.40 -21.45 67.10 -31.15 6.35 -6.35 8.55 -11.25 7.95 -17.55 -0.25 -2.75 -2.55 -12.95 -3 -13.40 -0.15 -0.15 -21.20 8.90 -38.55 16.60 -25.30 11.20 -71.85 35 -92.50 47.30 -9.45 5.60 -23.25 15.80 -26.95 19.90 -0.95 1.05 -0.95 1.05 1.25 1.05 1.20 0 4.35 -0.35 6.95 -0.75z m223.70 -98.65 c3.30 -5.85 8.55 -13.95 12.20 -18.70 1.40 -1.90 2.45 -3.40 2.30 -3.40 -0.25 0 -25.20 10 -25.55 10.25 -0.10 0.05 0.55 6.70 1.35 14.80 0.85 8.10 1.50 14.80 1.50 14.95 0 0.15 1.20 -2.70 2.70 -6.30 1.45 -3.65 3.90 -8.85 5.50 -11.60z m36.85 13 c1 -2.80 12.55 -48.20 12.30 -48.40 -0.05 -0.05 -3.40 1.15 -7.45 2.70 -7 2.60 -7.30 2.80 -7.60 4.30 -0.20 0.85 -0.45 7.75 -0.65 15.30 -0.25 12.60 0.20 24.20 1.20 29.05 0.35 1.85 0.70 1.40 2.20 -2.95z m-54.85 -28.85 l1.80 -0.75 0 -4.70 c0 -3.95 -0.15 -4.90 -1 -5.85 l-0.95 -1.20 -0.05 2.25 c0 2.05 -1 7.70 -1.75 10.05 -0.40 1.15 -0.35 1.15 1.95 0.20z m12.60 -21.40 c2.65 -5.15 2.90 -7.40 2.95 -23.60 0 -12.45 -0.15 -15.95 -0.95 -20.65 -0.50 -3.10 -1.10 -5.45 -1.30 -5.25 -0.90 1 -5.15 19.65 -6.30 27.40 -0.35 2.75 -0.85 9.75 -1 15.60 l-0.35 10.60 1.20 1 1.20 1.05 1.65 -1.90 c0.95 -1 2.25 -2.90 2.90 -4.25z m52.80 -4.35 c1.60 -0.60 3 -1.25 3.10 -1.45 0.55 -0.85 2.35 -16.50 3.30 -28.30 0.55 -6.85 1.10 -17.55 1.25 -23.75 l0.30 -11.25 -2.25 5.50 c-4.70 11.60 -5.25 13.05 -5.85 15.45 -0.55 2.15 -0.50 2.50 0.20 2.90 0.60 0.30 0.85 1.15 0.85 2.75 0 1.80 -0.30 2.60 -1.50 3.95 l-1.45 1.70 0.30 6.50 0.30 6.50 -2.50 0 -2.50 0 -1.60 6.40 c-0.85 3.50 -2.10 8.85 -2.75 11.95 l-1.20 5.60 4.60 -1.70 c2.50 -0.90 5.85 -2.15 7.40 -2.75z m35 -3.35 c0.15 -2.80 0.10 -3 -0.75 -2.55 -0.65 0.35 -0.85 0.85 -0.65 1.80 0.15 0.75 0.45 2.50 0.65 3.85 0.40 2.65 0.50 2.10 0.75 -3.10z m40.20 -3.45 c0.90 -3.15 4.45 -11.25 6.45 -14.85 0.75 -1.30 1.25 -2.50 1.15 -2.60 -0.10 -0.15 -2.85 0.85 -6.10 2.10 l-5.90 2.35 0.30 2.55 c0.40 2.85 2.80 13.25 3.10 13.25 0.10 0 0.55 -1.25 1 -2.80z m-38 -7 c1.90 -0.70 4.65 -1.75 6.10 -2.30 1.40 -0.55 2.60 -1.15 2.60 -1.35 0 -0.15 -1.55 -0.25 -3.40 -0.15 -3.25 0.20 -3.50 0.15 -4.50 -1.15 -0.60 -0.75 -1.10 -1.90 -1.10 -2.55 0 -1.55 -0.40 -1.50 -2.35 0.30 -1.55 1.40 -1.65 1.65 -1.65 5 0 1.90 0.20 3.50 0.45 3.50 0.25 0 2 -0.60 3.85 -1.30z m65.15 -26.55 c-0.60 -0.65 -0.70 -0.65 -1 0.20 -0.60 1.50 -0.50 1.70 0.60 1.15 0.85 -0.50 0.90 -0.70 0.40 -1.35z m-31.20 -10.90 c2.30 -6.05 2.80 -9.30 2.80 -17.85 0 -9.05 -0.55 -11.35 -1.50 -6.05 -2.10 12.35 -3.80 28.50 -2.85 27.60 0.15 -0.15 0.85 -1.80 1.55 -3.70z"/>
  <path d="M220.35 126.65 c-0.60 -0.55 -0.40 -4.40 0.25 -5.05 0.35 -0.35 1.40 -0.60 2.40 -0.60 2.20 0 3 0.75 3 2.80 0 2.80 -0.40 3.20 -2.95 3.20 -1.30 0 -2.55 -0.15 -2.70 -0.35z"/>
 </g>
 <g fill="#ffffff">
  <path d="M0 143 l0 -143 229.50 0 229.50 0 0 143 0 143 -229.50 0 -229.50 0 0 -143z m42.50 127.10 c21.35 -4.60 46 -11.75 79 -22.85 37.40 -12.65 55 -21.15 64.80 -31.35 9.55 -9.95 10.20 -15.15 4.65 -36.35 -0.20 -0.70 4.95 -2.95 39 -17.10 9.20 -3.80 16.80 -6.85 16.85 -6.80 0.10 0.05 1.10 9.45 2.25 20.85 1.80 17.95 2 21.10 1.50 23.50 -2.25 10.55 -2.65 18.35 -1.30 24.70 1.10 5.15 2.15 7 4.15 7.20 1.15 0.10 1.70 -0.05 1.95 -0.70 0.15 -0.50 -0.20 -6.15 -0.80 -12.60 -1.25 -12.75 -1.20 -15.65 0.50 -24.50 2.65 -13.75 10.30 -28.65 23.25 -45.35 6.60 -8.55 6.60 -8.55 10.15 -9.95 1.80 -0.70 3.25 -1.30 3.25 -1.30 0.05 0 0.05 9.05 0.05 20.10 0.05 20.65 0.85 32.95 2.25 34.65 0.90 1.10 3.35 0.90 5.10 -0.35 3.40 -2.40 5.25 -6.80 8.85 -21.30 2.75 -10.90 4.40 -20.20 5.70 -31.75 l1.10 -9.90 11.25 -4.20 c6.20 -2.35 11.50 -4.25 11.75 -4.25 0.30 0 1.30 5.50 2.30 12.30 1.15 7.65 2.10 12.55 2.50 12.95 4.10 3.85 7.30 -2.85 7.10 -14.70 -0.20 -8.60 -1.05 -11.15 -3.40 -10.25 -1.10 0.45 -1.20 1.40 -1.10 9.20 0.10 8.60 -0.55 10.90 -1.80 6.45 -1.50 -5.25 -2.45 -10.45 -2.50 -13.75 l-0.10 -3.35 8.25 -3.15 c8.20 -3.10 8.25 -3.10 9.45 -2.15 1.35 1.05 3.55 1.25 5.20 0.40 0.60 -0.30 2.55 -1.95 4.35 -3.65 2.85 -2.75 7.20 -5.25 7.90 -4.55 0.15 0.10 0.85 4.45 1.65 9.60 3.90 25.65 4.45 28.15 6.40 28.15 1.50 0 1.90 -1 2.25 -5.65 0.35 -4.40 4.05 -20.50 5.50 -23.85 1.25 -3 9.80 -18.20 10.50 -18.75 0.35 -0.25 3.95 -1.80 7.95 -3.45 l7.30 -2.90 1.50 1.05 c2.65 1.90 4.45 2.30 5.55 1.30 1.30 -1.20 1.25 -1.60 -0.45 -3.20 l-1.45 -1.40 2.95 -1.35 c1.60 -0.75 2.95 -1.55 2.95 -1.85 0 -1.05 -1.50 -0.95 -4.70 0.35 l-3.35 1.35 -3.85 -3.75 c-2.10 -2.05 -4.60 -4.15 -5.45 -4.60 -1.50 -0.75 -1.80 -0.75 -3.10 -0.05 -0.85 0.40 -1.90 1.40 -2.35 2.25 l-0.90 1.50 -1.30 -2.40 c-3.35 -6.25 -8.35 -3.45 -8.20 4.65 0.05 3.90 0.90 6.05 2.95 7.65 1.10 0.90 1.20 1.15 0.70 2.25 -0.30 0.70 -1.05 1.45 -1.65 1.75 -2.70 1.20 -19.25 7.60 -19.75 7.60 -1.20 0 -0.55 -5.15 1.20 -9.75 2.55 -6.75 5.05 -15.35 6 -21 1.40 -8.20 1 -34.60 -0.55 -36.30 -2.10 -2.30 -4.35 -1.35 -6.20 2.65 -3.40 7.35 -4.25 14.25 -3.55 29.25 0.30 6 0.55 13.65 0.55 17.05 l0 6.10 -2.75 5.45 c-1.50 3 -3.85 6.85 -5.30 8.55 -2.45 2.95 -5.40 4.90 -6.45 4.25 -0.30 -0.20 -0.50 -1.30 -0.50 -2.55 0 -2.10 0.20 -2.45 2.70 -4.75 3.10 -2.80 5.30 -6.80 5.30 -9.40 -0.05 -3.95 -3.95 -9.05 -6.95 -9.05 -1.70 0 -2.75 1.10 -2.40 2.50 0.60 2.25 -2.55 9.30 -7.25 16.20 -0.75 1.10 -1.40 -0.95 -1.40 -4.50 0 -6.05 -1.85 -6.20 -7.20 -0.70 -2.40 2.45 -3.60 3.35 -3.80 2.90 -0.20 -0.35 -0.60 -2.55 -0.95 -4.90 -0.70 -4.95 -2.95 -17.90 -3.65 -20.65 -0.35 -1.40 -0.70 -1.85 -1.30 -1.75 -1.20 0.25 -1 4.65 0.65 15 0.70 4.50 1.55 9.90 1.85 12.05 l0.60 3.85 -2.45 2.50 c-1.35 1.35 -3.20 2.85 -4.10 3.30 -1.30 0.55 -1.65 1.05 -1.55 1.85 0.10 0.60 0.55 1.15 1.05 1.25 0.95 0.20 5.45 -1.95 6.95 -3.25 0.75 -0.70 0.90 -0.65 1.15 0.40 0.15 0.65 0.30 2.90 0.40 4.95 l0.10 3.70 -11.20 4.20 c-6.10 2.30 -11.25 4.10 -11.35 4 -0.10 -0.10 0.05 -1.55 0.30 -3.20 1.55 -9.55 3.35 -34.30 4 -54.50 0.25 -8.25 0.70 -15.65 1 -16.45 0.70 -1.80 -0.45 -3.75 -2.20 -3.75 -4.80 0 -9.90 12.15 -13.05 31 -1.25 7.45 -2.15 11.30 -2.95 12.95 -3.85 7.60 -9.25 27.90 -9.30 35.05 0 1.45 -0.65 2.50 -3.70 6 l-3.65 4.25 -18.60 7.45 c-10.20 4.10 -18.65 7.35 -18.75 7.25 -0.30 -0.30 -0.60 -10.50 -0.30 -10.30 1.90 1.10 4 1.70 5.25 1.50 3.50 -0.70 9.15 -8.95 10.50 -15.50 0.90 -4.10 1 -20.85 0.20 -27.15 -0.25 -2.35 -1.15 -7.15 -2 -10.75 -0.80 -3.55 -1.80 -9.20 -2.25 -12.50 -0.80 -6.20 -1.45 -7.75 -3.30 -7.75 -0.55 0 -1.35 0.20 -1.85 0.50 -1.95 1 -5.30 10.95 -6.80 20.25 -0.75 4.40 -1.65 23.30 -1.90 37.75 l-0.10 7.25 -1.65 -2.25 c-2.45 -3.30 -4.80 -11.80 -6.30 -22.55 -0.70 -5.10 -1.30 -6.45 -2.75 -6.45 -1.45 0 -2.05 1.10 -2.05 3.55 0 2.90 1.65 11.80 3.10 16.35 0.90 2.95 1 4.25 0.75 11.85 -0.20 7.85 -1 13.75 -1.90 13.75 -0.40 0 -2.75 -10.05 -3.15 -13.75 -0.20 -1.50 -0.65 -2.75 -1.15 -3.15 -1.05 -0.75 -1.25 -0.75 -2.35 0.05 -1 0.75 -1.10 1.65 -0.60 6.85 0.45 4.30 -0.70 9.85 -3.15 15.20 -1.75 3.85 -3.05 5.10 -4.50 4.35 -2 -1.10 -5.05 -6.50 -5.05 -9 0 -0.50 0.70 -2.40 1.50 -4.15 3 -6.40 3.75 -14.20 1.45 -15.45 -1.50 -0.80 -2.75 -0.15 -4.70 2.55 -3.30 4.50 -4.50 10 -3.25 14.60 0.70 2.45 -0.10 4 -4.10 7.90 -2.85 2.75 -3.05 3.05 -2.30 3.80 0.75 0.75 0.95 0.75 2.75 -0.35 1.05 -0.65 2.75 -1.95 3.80 -2.90 1.05 -0.90 1.95 -1.60 2 -1.50 0.10 0.10 0.60 1.20 1.15 2.45 1.10 2.60 4.75 6.50 6.05 6.50 0.80 0.05 0.80 0.10 0.10 0.50 -0.85 0.50 -29.35 12.50 -29.70 12.50 -0.10 0 -0.90 -1.40 -1.80 -3.10 -4.35 -8.35 -21 -21.10 -47.20 -36.15 -17.45 -10.05 -27.65 -17.05 -39.05 -26.90 -8.85 -7.60 -11.40 -11.30 -12.95 -18.70 -0.95 -4.35 -0.95 -6.30 0.05 -11.05 0.90 -4.60 3.20 -9.65 7 -15.50 9 -13.80 18.35 -23.20 32.70 -32.90 9.60 -6.50 16.25 -9.10 28.35 -11.20 11.60 -2 17.85 -1.05 22.85 3.55 3.15 2.85 4.30 5.30 6.45 13.45 1.90 7.40 2 14.55 0.40 24.50 -2 12.55 -4.45 19.35 -10.15 28.35 -1.80 2.85 -8.95 10.15 -9.90 10.15 -0.75 0 -1.10 2.05 -0.50 2.75 1.30 1.55 4.05 0.50 9.40 -3.50 3.50 -2.60 7.05 -7.60 10.75 -15 3 -6 4.15 -9.90 5.40 -18.40 1.75 -11.85 0.75 -22 -3.40 -34.60 -2.75 -8.45 -5.60 -12.20 -11.45 -15.10 -4.90 -2.40 -9.30 -2.70 -18 -1.25 -14.20 2.45 -20.40 5.40 -36.20 17.40 -11.65 8.80 -19.55 17 -26.70 27.65 -7.15 10.60 -9.80 17.50 -9.80 25.25 0 8.25 2.20 13.85 7.85 19.80 8.70 9.25 22.90 19.85 40.15 29.95 27.75 16.30 36.45 22.20 45.90 31.25 3.80 3.65 7.10 8.20 7.10 9.85 0 0.45 -4.05 2.45 -10.35 5.15 -40.45 17.35 -56.20 24.85 -104.65 49.65 -34.75 17.80 -39.15 20.25 -44.30 24.35 -8.65 6.90 -11.25 13.50 -5.95 14.95 2.30 0.65 16.10 -0.05 20.75 -1.05z m181.70 -145.45 c0.20 -0.45 0 -1.15 -0.45 -1.60 -0.65 -0.70 -0.85 -0.70 -1.55 0.05 -0.45 0.45 -0.70 1.20 -0.55 1.60 0.40 1.05 2.15 1 2.55 -0.05z"/>
  <path d="M24.50 268.55 c0 -1.15 10.80 -10.40 19 -16.25 15.30 -10.95 70 -39.60 105.75 -55.45 13.90 -6.15 38.65 -16.85 39 -16.85 0.10 0 0.65 1.50 1.20 3.40 2.55 8.70 3.20 16.20 1.85 20.85 -2.20 7.30 -11.95 16.30 -24.35 22.55 -14.55 7.25 -41.60 17.20 -77.05 28.15 -18.95 5.90 -41.50 11.75 -50.90 13.30 -5.15 0.80 -14.50 1 -14.50 0.30z"/>
  <path d="M252 193.25 c0 -0.55 -0.80 -8.75 -1.75 -18.25 -0.95 -9.50 -1.75 -17.90 -1.75 -18.75 l0 -1.50 16.55 -6.65 c9.10 -3.65 16.65 -6.60 16.75 -6.50 0.05 0.10 -1.75 2.55 -4 5.50 -11.50 14.75 -18.25 26.65 -23.05 40.65 -1.95 5.65 -2.75 7.20 -2.75 5.50z"/>
  <path d="M295.05 188.35 c-1.35 -3.50 -1.80 -10.70 -1.80 -28.10 0 -9.90 0.20 -19.25 0.40 -20.80 l0.40 -2.80 8.90 -3.35 c4.90 -1.80 9.05 -3.30 9.30 -3.30 0.65 0 -0.15 3.65 -5.60 25.50 -6.70 27 -8.15 31.60 -10.35 33.45 -0.65 0.55 -0.85 0.45 -1.25 -0.60z"/>
  <path d="M226 161 c0 -0.25 0.25 -0.60 0.50 -0.75 0.70 -0.45 2.45 -3.95 3.50 -7 l0.85 -2.50 1.05 2.35 c1.20 2.80 2.85 3.85 4.60 2.90 2.40 -1.25 5 -10.20 5 -17.10 l0 -3.65 2.40 2.40 2.35 2.35 0.25 6.30 c0.15 3.90 0.05 6.45 -0.25 6.65 -0.25 0.20 -1.40 0.75 -2.50 1.20 -1.10 0.40 -5.55 2.25 -9.85 4.05 -4.35 1.75 -7.90 3.05 -7.90 2.80z"/>
  <path d="M213.55 142 c0 -0.40 0.35 -1.55 0.75 -2.50 l0.70 -1.75 -0.30 1.75 c-0.35 2 -1.20 3.80 -1.15 2.50z"/>
  <path d="M249.05 137.90 l-1.65 -1.15 0.30 -12.25 c0.30 -13.85 0.90 -18.65 3.85 -31.60 1.75 -7.85 4.45 -17.05 5.15 -17.75 0.30 -0.35 1.65 4.50 2.65 9.85 1.30 6.90 1.30 37.15 0.05 41.85 -1.10 4 -2.80 7.35 -5.15 10.05 -2.10 2.40 -2.85 2.55 -5.20 1z"/>
  <path d="M290.35 133.75 c1 -1.25 1.95 -2.25 2 -2.25 0.10 0 0.15 0.70 0.15 1.55 0 1.25 -0.30 1.60 -1.75 2.25 -2.50 1 -2.50 0.95 -0.40 -1.55z"/>
  <path d="M294.50 133.05 c0 -2.25 4.65 -22.10 6.60 -28.30 1.40 -4.30 1.65 -4.75 1.75 -3.25 0.30 3.25 0.60 4 1.70 4 1 0 1.05 -0.15 0.70 -6.40 l-0.35 -6.45 1.55 -1.75 c1.80 -2.05 2 -3.40 0.55 -3.75 -0.65 -0.15 -1 -0.70 -1 -1.40 0 -1.80 2.25 -9.20 4.15 -13.55 0.95 -2.15 2.75 -6.65 4.05 -10 3.95 -10.25 3.90 -10.35 3.60 7.80 -0.15 8.65 -0.75 21.40 -1.30 28.25 -1.10 13.75 -2.80 27.75 -3.45 28.40 -0.45 0.45 -17.35 6.85 -18.10 6.85 -0.25 0 -0.45 -0.20 -0.45 -0.45z"/>
  <path d="M380.85 122.65 c-2.05 -7.85 -3.60 -16.60 -3 -17.20 0.40 -0.40 17.80 -7.35 18 -7.20 0.10 0.05 -1.25 2.65 -2.90 5.80 -4.40 8.30 -7.20 15.05 -8.55 20.55 -0.60 2.70 -1.30 4.90 -1.45 4.90 -0.15 0 -1.10 -3.10 -2.10 -6.85z"/>
  <path d="M339.90 111.15 l-0.20 -5.35 3.30 -3.10 3.25 -3.10 0.55 2.95 c0.30 1.60 0.95 3.40 1.45 3.95 1.25 1.35 3.35 1.25 5.20 -0.30 0.85 -0.70 1.75 -1.15 2.05 -0.95 0.25 0.15 0.50 1.50 0.50 3 l0 2.70 -2.85 1.05 c-6.20 2.35 -12.20 4.50 -12.60 4.50 -0.25 0 -0.55 -2.40 -0.65 -5.35z"/>
  <path d="M374 103.65 c0 -0.25 0.30 -0.90 0.70 -1.45 0.85 -1.10 1.75 -0.55 1 0.65 -0.60 0.95 -1.70 1.45 -1.70 0.80z"/>
  <path d="M361.65 94.85 c0.15 -0.85 0.60 -2.40 1 -3.35 l0.75 -1.75 0.05 1.90 c0.05 1.75 -1.10 4.85 -1.80 4.85 -0.15 0 -0.15 -0.75 0 -1.65z"/>
  <path d="M404 91.60 c0 -0.25 0.55 -0.95 1.20 -1.55 0.65 -0.65 1.90 -2.60 2.80 -4.35 0.85 -1.75 1.75 -3.20 1.95 -3.20 0.50 0 5.30 4.95 5 5.20 -0.30 0.30 -10.20 4.30 -10.60 4.30 -0.20 0 -0.35 -0.20 -0.35 -0.40z"/>
  <path d="M376.75 76.50 c0.10 -5.90 0.60 -13 1 -15.75 1.95 -12.75 3.75 -20.10 4.75 -19.50 1.15 0.70 2.10 15.30 1.50 23.05 -0.50 6.25 -2 11.55 -5.45 18.70 l-2.05 4.25 0.25 -10.75z"/>
  <path d="M400.40 86 c-0.20 -0.70 -0.40 -2.05 -0.40 -3 0.05 -1.45 0.10 -1.60 0.55 -0.85 0.30 0.45 0.45 1.80 0.35 3 -0.15 1.80 -0.20 1.90 -0.50 0.85z"/>
 </g>
</svg>